<svg width="561" height="355" viewBox="0 0 561 355" fill="none" xmlns="http://www.w3.org/2000/svg">
<rect x="1" y="1" width="559" height="353" rx="29" fill="#142163" stroke="url(#paint0_linear_3_2157)" stroke-width="2"/>
<mask id="mask0_3_2157" style="mask-type:alpha" maskUnits="userSpaceOnUse" x="0" y="0" width="561" height="355">
<rect width="561" height="355" rx="30" fill="#16084C"/>
</mask>
<g mask="url(#mask0_3_2157)">
<path d="M-0.775013 22.6762C-1.55025 -120.041 121.731 -294.92 264.449 -295.695C407.166 -296.47 542.091 -122.994 542.867 19.7231C543.625 159.365 473.3 103.141 280.167 209.021C271.589 213.723 262.466 218.043 253.191 221.154C33.4499 294.869 -0.0156589 162.469 -0.775013 22.6762Z" fill="white" fill-opacity="0.15"/>
<path d="M-20.1229 101.588C-20.9682 -54.0394 113.465 -244.737 269.092 -245.582C424.719 -246.428 571.849 -57.2596 572.695 98.3675C573.522 250.641 496.835 189.331 286.232 304.788C276.879 309.916 266.93 314.626 256.816 318.019C17.198 398.403 -19.2948 254.026 -20.1229 101.588Z" fill="white" fill-opacity="0.15"/>
<path d="M-15.4025 -79.7154C-16.1777 -222.433 107.104 -397.311 249.821 -398.087C392.538 -398.862 527.464 -225.386 528.239 -82.6685C528.998 56.9739 458.672 0.749229 265.54 106.629C256.962 111.332 247.838 115.651 238.564 118.762C18.8225 192.478 -14.6431 60.0772 -15.4025 -79.7154Z" fill="white" fill-opacity="0.15"/>
</g>
<path d="M33 278.161L523 278.161" stroke="#F9F9F9" stroke-opacity="0.21"/>
<defs>
<linearGradient id="paint0_linear_3_2157" x1="2.65186e-06" y1="153.672" x2="561" y2="177.5" gradientUnits="userSpaceOnUse">
<stop offset="0.00638632" stop-color="white" stop-opacity="0.32"/>
<stop offset="1" stop-color="#FBFBFB" stop-opacity="0.37"/>
</linearGradient>
</defs>
</svg>
